PathFileType	4	(X/Y/Z)	C:\Users\Basilio\Documents\Thesis Gigler\squatting_fais\c3dfiles\073\SJ_pre1\markers_experimental.trc
DataRate	CameraRate	NumFrames	NumMarkers	Units	OrigDataRate	OrigDataStartFrame	OrigNumFrames
200.000000	200.000000	4	61	mm	200.000000	172	1383
Frame#	Time	FHD			LBHD			RBHD			C7			T10			CLAV			LSHO			LUUPA			LMUPA			LDUPA			LLEP			LMEP			LRAD			LUL			LRFIN			RSHO			RUPA1			RMUPA			RDUPA			RLEP			RMEP			RRAD			RUL			RUFIN			LASI			RASI			USACR			LSACR			RSACR			LTHI1			LTHI2			LTHI3			LTHI4			LLFC			LMFC			LTIB1			LTIB2			LTIB3			LTIB4			LLMAL			LMMAL			LHEE			LMT1			LMT2			LMT5			RTHI			RTHI2			RTHI3			RTHI4			RLFC			RMFC			RTIB1			RTIB2			RTIB3			RTIB4			RLMAL			RMMAL			RHEE			RMT1			RMT2			RMT5			
		X1	Y1	Z1	X2	Y2	Z2	X3	Y3	Z3	X4	Y4	Z4	X5	Y5	Z5	X6	Y6	Z6	X7	Y7	Z7	X8	Y8	Z8	X9	Y9	Z9	X10	Y10	Z10	X11	Y11	Z11	X12	Y12	Z12	X13	Y13	Z13	X14	Y14	Z14	X15	Y15	Z15	X16	Y16	Z16	X17	Y17	Z17	X18	Y18	Z18	X19	Y19	Z19	X20	Y20	Z20	X21	Y21	Z21	X22	Y22	Z22	X23	Y23	Z23	X24	Y24	Z24	X25	Y25	Z25	X26	Y26	Z26	X27	Y27	Z27	X28	Y28	Z28	X29	Y29	Z29	X30	Y30	Z30	X31	Y31	Z31	X32	Y32	Z32	X33	Y33	Z33	X34	Y34	Z34	X35	Y35	Z35	X36	Y36	Z36	X37	Y37	Z37	X38	Y38	Z38	X39	Y39	Z39	X40	Y40	Z40	X41	Y41	Z41	X42	Y42	Z42	X43	Y43	Z43	X44	Y44	Z44	X45	Y45	Z45	X46	Y46	Z46	X47	Y47	Z47	X48	Y48	Z48	X49	Y49	Z49	X50	Y50	Z50	X51	Y51	Z51	X52	Y52	Z52	X53	Y53	Z53	X54	Y54	Z54	X55	Y55	Z55	X56	Y56	Z56	X57	Y57	Z57	X58	Y58	Z58	X59	Y59	Z59	X60	Y60	Z60	X61	Y61	Z61	

173	0.86	-252.4729461669922	1689.619262695313	-977.9068603515627	-377.6252441406251	1633.439819335938	-1009.201293945313	-404.593231201172	1613.267700195313	-876.8271484375002	-417.5664978027345	1525.182373046875	-941.753845214844	-463.1634826660157	1183.761352539063	-949.0150146484377	-297.3937683105469	1434.156982421875	-935.0137329101565	-317.2919616699219	1461.143188476563	-1111.3369140625	-391.2533264160157	1366.447021484375	-1230.285400390625	-369.8430480957032	1320.613159179688	-1230.994506835938	-417.3670959472657	1314.580810546875	-1270.516235351563	-445.5134277343751	1226.328735351563	-1317.87841796875	-515.3964233398439	1206.893676757813	-1276.786254882813	-357.9964904785157	1031.097290039063	-1162.012329101563	-317.0227355957032	1013.668395996094	-1221.095825195313	-317.4767150878907	1031.371948242188	-1117.296264648438	-327.3002014160157	1454.63671875	-766.2189331054689	-416.6609802246095	1380.366577148438	-632.6949462890626	-399.6858520507814	1334.948852539063	-622.2344970703126	-448.917205810547	1337.82666015625	-587.7878417968751	-470.702606201172	1259.071899414063	-537.9768676757814	-546.0364379882814	1243.765991210938	-592.3669433593751	-438.1550292968751	1042.093994140625	-695.9938354492189	-395.4589843750001	1018.836181640625	-637.0607910156251	-373.4772644042969	1029.798095703125	-738.6643066406251	-277.5762329101563	1027.533447265625	-1056.627807617188	-302.5043640136719	1019.335205078125	-804.403259277344	-473.5126953125001	1080.896362304688	-944.8270263671877	-484.146697998047	1053.674072265625	-975.3117675781252	-492.3577270507814	1049.450805664063	-920.212829589844	-353.3609924316407	716.4064941406251	-1146.39306640625	-334.0438537597657	635.2858276367189	-1131.89501953125	-298.2331237792969	632.0388183593751	-1098.272338867188	-372.2306213378907	589.1050415039064	-1133.830688476563	-380.6068725585938	528.7340087890626	-1141.00439453125	-394.5127868652345	509.6166076660157	-1004.580871582031	-342.1966857910157	326.2272033691407	-1106.045288085938	-398.5561828613282	289.2223510742188	-1162.784912109375	-358.7524414062501	281.2559814453126	-1141.126953125	-359.2771911621094	200.8648834228516	-1113.0654296875	-422.4698791503907	86.81755828857423	-1145.442016601563	-411.5291748046876	104.6459579467774	-1060.274291992188	-478.790985107422	49.01731872558595	-1106.376953125	-252.0131072998047	54.60831451416017	-1071.387329101563	-251.5484619140626	55.01061630249025	-1110.46240234375	-286.6871948242188	36.55290222167969	-1165.577392578125	-412.0099182128907	795.058044433594	-725.6268920898439	-380.9336853027344	737.2707519531251	-714.5654907226564	-347.1588745117188	736.3212890625001	-716.5247192382814	-412.7239379882814	660.1703491210939	-730.5354003906251	-397.3684082031251	512.9690551757814	-724.5602416992189	-377.8366394042969	482.1784667968751	-849.7340087890627	-347.7835083007813	340.1659240722657	-781.5329589843752	-378.8962402343751	269.6339721679688	-704.4390258789064	-350.8348083496094	262.3948974609376	-742.8383178710939	-364.3907165527344	211.9706268310547	-769.3192138671877	-416.9035034179689	87.6674041748047	-701.7943115234376	-402.369598388672	100.6199569702149	-790.4418945312502	-479.2981262207032	44.82289505004884	-756.7053222656251	-249.7480621337891	56.12829208374025	-743.8272705078126	-254.1197204589844	56.04153442382814	-702.7539672851564	-299.7256774902344	35.85258483886719	-657.7816772460939	
174	0.865	-252.0566558837891	1689.686401367188	-976.8530883789065	-377.1954345703126	1633.454345703125	-1007.958618164063	-404.3201904296876	1613.2548828125	-875.6918945312502	-417.1799316406251	1525.247924804688	-940.5903320312502	-463.3441467285157	1183.859375	-948.1418457031252	-297.3245544433594	1434.052490234375	-934.1308593750002	-317.0271606445313	1461.090942382813	-1110.223022460938	-390.828582763672	1366.658203125	-1229.236328125	-369.8457946777344	1320.635620117188	-1230.3271484375	-417.0835876464845	1314.7978515625	-1269.519775390625	-445.4118957519532	1226.629760742188	-1316.970092773438	-515.4922485351564	1207.3173828125	-1275.845458984375	-358.1114501953126	1031.14794921875	-1161.073608398438	-317.2334289550782	1013.795227050781	-1220.198364257813	-317.6437072753907	1031.356079101563	-1116.583862304688	-327.0297851562501	1454.427490234375	-765.0328979492189	-416.613006591797	1380.048583984375	-631.8082885742189	-399.7174682617189	1334.612426757813	-621.3145751953126	-449.0080871582032	1337.423461914063	-586.8676147460939	-470.8684692382814	1258.625244140625	-537.2012329101564	-546.1677856445314	1243.478149414063	-591.7680053710939	-438.1753540039064	1041.78466796875	-695.3591918945314	-395.5900878906251	1018.560241699219	-636.2680664062501	-373.5056152343751	1029.764892578125	-738.0051879882814	-277.7844543457032	1027.574340820313	-1055.836303710938	-302.5684204101563	1019.317504882813	-803.5651855468752	-473.6224365234376	1080.79638671875	-943.982849121094	-484.3156127929689	1053.581420898438	-974.456970214844	-492.5140380859376	1049.418823242188	-919.3114013671877	-353.5742492675782	716.3424072265626	-1145.720825195313	-334.0460205078126	635.2699584960939	-1131.399658203125	-298.1520690917969	632.0939941406251	-1097.707641601563	-372.1585388183594	589.1132812500001	-1133.262939453125	-380.4658508300782	528.7680053710939	-1140.572387695313	-394.0411682128907	509.4754028320314	-1004.053405761719	-341.8721008300782	326.4052124023438	-1105.658203125	-398.5228271484376	289.3176269531251	-1162.517211914063	-358.6086730957032	281.4480895996094	-1140.777587890625	-359.2200622558594	200.8719024658204	-1112.944946289063	-422.3703918457032	86.84091949462892	-1145.325927734375	-411.511932373047	104.6176376342774	-1060.195068359375	-478.7631835937501	49.04015350341798	-1106.358520507813	-252.0365295410157	54.54832458496095	-1071.464477539063	-251.5365905761719	54.99510574340822	-1110.427001953125	-286.6864013671876	36.51195907592774	-1165.571899414063	-411.9777832031251	795.0338134765627	-724.9704589843751	-380.7882690429688	737.3076782226564	-713.8663330078126	-347.0715942382813	736.3066406250001	-715.8733520507814	-412.7327575683595	660.1719970703126	-729.8344726562501	-397.4224243164064	512.9215087890626	-724.1133422851564	-377.9776611328126	482.2381286621095	-849.419616699219	-347.7405395507813	340.1199340820313	-781.206726074219	-378.8398132324219	269.5922851562501	-704.2221069335939	-350.8239440917969	262.3603820800782	-742.6493530273439	-364.4185180664063	211.9423828125001	-769.219177246094	-416.9396057128907	87.6344680786133	-701.7418212890626	-402.4454650878907	100.6005783081055	-790.3798828125002	-479.324188232422	44.81059646606446	-756.6988525390626	-249.7552490234376	56.14382553100587	-743.7970581054689	-254.0853118896485	56.03941345214845	-702.7099609375001	-299.7029113769532	35.86406326293946	-657.7224731445314	
175	0.87	-251.7556304931641	1689.560791015625	-975.7095336914065	-376.8604736328126	1633.460327148438	-1006.784423828125	-403.9183349609376	1613.23486328125	-874.5488891601565	-416.7565002441407	1525.317260742188	-939.4617919921877	-463.3760070800782	1183.970092773438	-947.2312622070315	-297.0286254882813	1433.962280273438	-932.9183349609377	-316.6304321289063	1461.177001953125	-1108.938232421875	-390.6153869628907	1366.828857421875	-1228.14990234375	-369.6560058593751	1320.767578125	-1229.091186523438	-416.9129638671876	1315.0517578125	-1268.195190429688	-445.4058532714845	1226.97314453125	-1316.04833984375	-515.4933471679689	1207.767211914063	-1274.917236328125	-358.6156005859376	1031.338134765625	-1160.34130859375	-317.4924621582032	1013.906982421875	-1219.449584960938	-317.7007446289063	1031.360107421875	-1115.723388671875	-326.7671203613282	1454.240356445313	-763.8094482421876	-416.5972290039064	1379.749145507813	-630.7537231445314	-399.7867126464845	1334.239624023438	-620.3051757812501	-449.0639038085939	1337.088500976563	-586.0338134765626	-471.0269775390626	1258.227661132813	-536.4324951171876	-546.2615966796876	1243.159057617188	-591.0712280273439	-438.1816406250001	1041.457641601563	-694.7197875976564	-395.7381591796876	1018.238159179688	-635.4490966796876	-373.4935913085938	1029.735961914063	-737.2506103515626	-277.9204101562501	1027.615844726563	-1055.041625976563	-302.6252441406251	1019.2314453125	-802.7507324218752	-473.7748413085939	1080.73193359375	-943.0357666015627	-484.6118469238282	1053.509033203125	-973.5146484375002	-492.6570434570314	1049.3544921875	-918.4594726562502	-353.7931518554688	716.3626098632814	-1145.012817382813	-333.9418640136719	635.3208618164064	-1130.947021484375	-298.0733032226563	632.1411132812501	-1097.141845703125	-372.2507629394532	589.0602416992189	-1132.780639648438	-380.3700561523438	528.7908325195314	-1140.051025390625	-393.5864868164064	509.3165283203126	-1003.35791015625	-341.8223876953126	326.1672363281251	-1105.349243164063	-398.4174804687501	289.3094177246094	-1162.140747070313	-358.6525878906251	281.2565002441407	-1140.647338867188	-359.2179870605469	200.8563842773438	-1112.733520507813	-422.3729248046876	86.85740661621095	-1145.323608398438	-411.4517211914064	104.5746765136719	-1060.096313476563	-478.758758544922	49.05879974365236	-1106.333984375	-252.026351928711	54.52286529541017	-1071.421630859375	-251.5124053955079	54.98284912109376	-1110.4384765625	-286.6692199707032	36.56201553344727	-1165.5634765625	-411.9428100585939	795.0288085937502	-724.3328857421876	-380.6914062500001	737.3095703125001	-713.2834472656251	-346.9834899902344	736.2509765625001	-715.3490600585939	-412.6707763671876	660.1899414062501	-729.2316894531251	-397.4252014160157	512.9030761718751	-723.6465454101564	-378.1053161621094	482.2772827148439	-848.898620605469	-347.7589416503907	340.0896606445313	-781.0267333984377	-378.7814941406251	269.4933471679688	-704.0449829101564	-350.8301086425782	262.3248901367188	-742.4404907226564	-364.4440917968751	211.9561004638672	-769.093933105469	-416.9554748535157	87.62213134765626	-701.6555786132814	-402.326629638672	100.55615234375	-790.3653564453127	-479.3241577148439	44.8070297241211	-756.6067504882814	-249.7409057617188	56.11356735229494	-743.7657470703126	-254.1121673583985	55.97483062744142	-702.7436523437501	-299.7009887695313	35.83220672607423	-657.7030639648439	
176	0.875	-251.175033569336	1689.574096679688	-974.3333129882815	-376.4263000488282	1633.428955078125	-1005.577209472656	-403.4415588378907	1613.179443359375	-873.2716064453127	-416.5599975585939	1525.359375	-938.3489990234377	-463.4680175781251	1184.038330078125	-946.252868652344	-296.7299194335938	1433.864135742188	-931.7504882812502	-316.3365173339844	1461.186279296875	-1107.8671875	-390.3907470703126	1367.008544921875	-1227.069580078125	-369.3557739257813	1320.916870117188	-1227.925537109375	-416.6919860839845	1315.322021484375	-1267.2822265625	-445.312713623047	1227.256591796875	-1314.855346679688	-515.4877929687501	1208.092407226563	-1273.929321289063	-358.2662963867188	1031.328491210938	-1159.396728515625	-317.7384643554688	1013.955261230469	-1218.571899414063	-318.1542968750001	1031.351928710938	-1114.815673828125	-326.5768432617188	1454.067138671875	-762.7148437500001	-416.5342712402345	1379.426635742188	-629.7133178710939	-399.8233337402345	1333.892700195313	-619.3905029296876	-449.1356201171876	1336.688720703125	-585.0795898437501	-471.2371520996095	1257.781127929688	-535.7028808593751	-546.3408813476564	1242.867065429688	-590.3663330078126	-438.2415161132814	1041.13330078125	-694.1522216796876	-395.8799133300782	1017.977172851563	-634.6863403320314	-373.4750061035157	1029.69580078125	-736.4315185546876	-278.1429138183594	1027.585083007813	-1054.398559570313	-302.6603088378907	1019.123962402344	-801.9722290039065	-473.9850158691407	1080.724853515625	-942.0993652343752	-484.7506408691407	1053.470336914063	-972.5544433593752	-492.7276306152345	1049.27685546875	-917.4602661132815	-354.0369262695313	716.3721923828126	-1144.452758789063	-333.9816284179688	635.4161987304689	-1130.378784179688	-298.0968933105469	632.1854858398439	-1096.7880859375	-372.3050537109376	589.0942993164064	-1132.283203125	-380.2579040527344	528.7627563476564	-1139.294067382813	-393.2251281738282	509.1846008300782	-1002.745300292969	-341.6803894042969	326.1539306640626	-1105.018676757813	-398.3181152343751	289.4012451171876	-1161.741333007813	-358.5393066406251	281.3174743652344	-1140.266723632813	-359.1504821777344	200.8074645996094	-1112.626342773438	-422.3506774902345	86.91379547119142	-1145.246459960938	-411.4440307617189	104.5540466308594	-1060.0009765625	-478.7402648925782	49.07057189941408	-1106.26220703125	-252.0030059814454	54.54150772094728	-1071.42822265625	-251.5545959472657	54.96984863281251	-1110.47607421875	-286.6272888183594	36.54271697998048	-1165.576782226563	-411.8482055664064	795.0012207031252	-723.4904785156251	-380.6418457031251	737.2675781250001	-712.7053222656251	-346.9666137695313	736.2518920898439	-714.8522949218751	-412.6275329589845	660.1792602539064	-728.7154541015626	-397.4284057617189	512.8617553710939	-723.2031860351564	-378.2192993164063	482.3125000000001	-848.3564453125002	-347.8049316406251	340.1007690429688	-780.7815551757815	-378.7797241210938	269.4606018066407	-703.7843627929689	-350.8166198730469	262.2714843750001	-742.3038330078126	-364.4864196777344	211.9313049316407	-768.9644165039065	-416.9851989746095	87.58960723876955	-701.5758666992189	-402.3350830078126	100.5724716186524	-790.2971191406252	-479.3311462402345	44.78264617919923	-756.6105957031251	-249.747299194336	56.11906051635744	-743.7778320312501	-254.1139526367188	55.973934173584	-702.7400512695314	-299.7357177734376	35.82321548461915	-657.6770019531251	
